<?xml version="1.0" encoding="UTF-8"?><!DOCTYPE svg PUBLIC "-//W3C//DTD SVG 1.1//EN" "http://www.w3.org/Graphics/SVG/1.1/DTD/svg11.dtd"><svg xmlns="http://www.w3.org/2000/svg" xmlns:xlink="http://www.w3.org/1999/xlink"><defs/><symbol id="arrow-right" viewBox="0 0 24 24"><path d="M13.293 7.293a.999.999 0 0 0 0 1.414L15.586 11H8a1 1 0 0 0 0 2h7.586l-2.293 2.293a.999.999 0 1 0 1.414 1.414L19.414 12l-4.707-4.707a.999.999 0 0 0-1.414 0z"/></symbol><symbol id="close" viewBox="0 0 33.942 33.942"><path d="M33.942 4.243L29.699 0 16.971 12.728 4.243 0 0 4.243l12.728 12.728L0 29.699l4.243 4.243 12.728-12.728 12.728 12.728 4.243-4.243-12.728-12.728z"/></symbol><symbol id="graph" viewBox="0 0 512 512"><path d="M15.1 6h344.2v82.6H15.1zM15.1 110.3h481.8v82.6H15.1zM15.1 214.7h139.8v82.6H15.1zM15.1 319h269.2v82.6H15.1zM15.1 423.4h448.7V506H15.1z"/></symbol><symbol id="pokeball" viewBox="0 0 511.99 511.99"><path fill="#ed5564" d="M493.991 200.996l-15-51.499-41-59.499-53.498-43.999-65-26-55.498-6.5-64.999 8-69.999 27.5-50.499 38.499-37.999 47.999-21.5 64.999v36.499l39.499 3.5 110.498 15.5 19-44.999 46.999-26h27.5l25.5 4 32.998 22 27 41.499 148.498-16.5z"/><path fill="#f5f7fa" d="M340.993 288.495l-5 4.999-16.5 33.499-30.498 20-28.75 2.5-24.25-4.5-15.5-5-20.499-13-12.5-14.999-13-23.499-23.999-4.5-74.999-7.5-56.499-4.5-4 13 25.5 89.498 67.498 77.498 111.498 46 85.499 2.5 62.999-22 64.998-51 49.5-73.998 22.999-86.826z"/><path d="M505.49 238.495l-35.999 3-123.998 18-8-8-7.5-17.5-13.499-26.5-37.499-19h-23l-43.101 8.719-23.398 20.781-14.5 38h-41.5l-118.497-12 2 22.672 23 4.828 97.92 11.25 34.554 5.375 11.523 27.374 25.5 22.999 23 9.484h45.125s29.374-17.984 31.718-19.484c2.328-1.5 31.655-39.998 31.655-39.998l12.5-6.5 130.998-15.328 23.498-7.672-2.5-20.5z" fill="#434a54"/><path d="M296.869 266.557c0 21.844-17.718 39.562-39.562 39.562-21.851 0-39.562-17.718-39.562-39.562s17.711-39.562 39.562-39.562c21.844 0 39.562 17.719 39.562 39.562z" fill="#f5f7fa"/><path d="M491.866 156.341c-12.891-30.468-31.344-57.843-54.844-81.358-23.515-23.515-50.904-41.953-81.373-54.858C324.087 6.781 290.557 0 255.995 0c-34.554 0-68.085 6.781-99.646 20.125-30.484 12.905-57.867 31.343-81.366 54.858-23.507 23.515-41.968 50.89-54.858 81.358C6.773 187.918 0 221.433 0 255.995s6.773 68.092 20.125 99.654c12.89 30.484 31.351 57.858 54.858 81.373 23.5 23.5 50.882 41.953 81.366 54.844 31.562 13.358 65.092 20.124 99.646 20.124 34.562 0 68.092-6.766 99.654-20.124 30.469-12.891 57.858-31.344 81.373-54.844 23.5-23.515 41.953-50.889 54.844-81.373 13.343-31.562 20.124-65.092 20.124-99.654s-6.781-68.077-20.124-99.654zm-1.219 99.654c0 .656 0 1.297-.016 1.938-10.406 1.984-30.203 5.438-57.672 8.859-20.765 2.594-48.326 5.453-81.279 7.531.219-2.516.312-5.078.312-7.656 0-.984-.016-1.953-.047-2.938 68.202-4.234 116.576-11.984 138.545-16.047.095 2.766.157 5.532.157 8.313zM90.06 90.06c44.328-44.311 103.256-68.717 165.935-68.717 62.686 0 121.607 24.406 165.935 68.717 37.233 37.25 60.405 84.795 66.874 136.216-10.812 2.031-29.906 5.281-55.844 8.516-21.343 2.672-49.873 5.609-84.061 7.703-10.734-41.28-48.312-71.827-92.904-71.827-44.585 0-82.17 30.546-92.913 71.827-34.179-2.094-62.709-5.031-84.045-7.703a1118.463 1118.463 0 0 1-24.227-3.281c5.367-44.859 25.437-86.374 57.882-118.826 38.274-38.265 89.171-59.343 143.303-59.343 2.727 0 5.461-1.046 7.539-3.125a10.666 10.666 0 0 0 0-15.094 10.643 10.643 0 0 0-7.539-3.125c-59.835 0-116.084 23.312-158.388 65.608-35.671 35.671-57.812 81.264-63.882 130.544a556.804 556.804 0 0 1-10.531-1.875C29.647 174.856 52.827 127.31 90.06 90.06zm240.589 176.607c0 41.171-33.483 74.67-74.654 74.67s-74.663-33.499-74.663-74.67 33.491-74.671 74.663-74.671c41.171 0 74.654 33.499 74.654 74.671zM21.335 255.995c0-2.781.062-5.547.156-8.312 21.968 4.062 70.35 11.812 138.552 16.047a95.334 95.334 0 0 0 .258 10.594c-32.944-2.078-60.506-4.938-81.264-7.531-27.484-3.422-47.273-6.875-57.679-8.859-.007-.642-.023-1.283-.023-1.939zM421.93 421.93c-44.328 44.327-103.249 68.733-165.935 68.733-62.679 0-121.607-24.406-165.935-68.733-38.64-38.64-62.14-88.405-67.53-142.06 22.937 4.219 72.53 12.03 142.06 16.124 12.422 38.64 48.702 66.671 91.405 66.671 42.702 0 78.982-28.031 91.404-66.671 45.594-2.688 82.623-6.968 109.186-10.78-6.188 43.029-25.984 82.779-57.28 114.091-38.28 38.28-89.186 59.358-143.31 59.358a10.643 10.643 0 0 0-7.539 3.125c-4.172 4.172-4.172 10.922 0 15.078a10.576 10.576 0 0 0 7.539 3.125c59.843 0 116.092-23.297 158.388-65.593 36.171-36.187 58.437-82.53 64.14-132.606 4.141-.703 7.781-1.328 10.938-1.922-5.392 53.654-28.892 103.42-67.531 142.06z"/><path d="M255.995 213.339c-29.406 0-53.335 23.922-53.335 53.328 0 29.405 23.929 53.326 53.335 53.326s53.343-23.921 53.343-53.326c0-29.406-23.937-53.328-53.343-53.328zm0 85.327c-17.648 0-32-14.358-32-31.999s14.351-32 32-32c17.641 0 32 14.359 32 32s-14.359 31.999-32 31.999z"/></symbol><symbol id="search" viewBox="0 0 32 32"><path d="M31.12 26.879l-7.342-7.342a14.147 14.147 0 0 1-4.242 4.242l7.343 7.342a2.997 2.997 0 0 0 4.241 0 2.997 2.997 0 0 0 0-4.242zM24 12c0-6.627-5.373-12-12-12S0 5.373 0 12s5.373 12 12 12 12-5.373 12-12zm-12 9c-4.964 0-9-4.036-9-9 0-4.963 4.036-9 9-9 4.963 0 9 4.037 9 9 0 4.964-4.037 9-9 9z"/><path d="M5 12h2c0-2.757 2.242-5 5-5V5c-3.86 0-7 3.142-7 7z"/></symbol><symbol id="swap" viewBox="0 0 14 18"><path d="M11 14V7H9v7H6l4 4 4-4h-3zM4 0L0 4h3v7h2V4h3L4 0z" fill="#000" fill-rule="evenodd"/></symbol></svg>